<?xml version="1.0" encoding="UTF-8" standalone="no"?>
<!-- Created with Inkscape (http://www.inkscape.org/) -->

<svg
   width="512"
   height="512"
   viewBox="0 0 135.46666 135.46667"
   version="1.1"
   id="svg1"
   xml:space="preserve"
   xmlns="http://www.w3.org/2000/svg"
   xmlns:svg="http://www.w3.org/2000/svg"><defs
     id="defs1" /><g
     id="layer1"><path
       style="fill:#ffffff;stroke-width:0.999999"
       d="m 7.6030723,125.61454 v -9.85212 H 46.601055 85.599037 v -7.38909 -7.38909 H 59.737236 33.875404 V 98.131553 95.278868 L 20.944488,95.052749 8.0136041,94.826663 7.7538796,92.568886 7.4941562,90.311106 h 13.1906718 13.1907 V 87.02707 83.743031 H 59.73736 85.599161 V 80.048485 76.35394 H 59.73736 33.875528 V 73.069898 69.785859 H 20.739379 7.6031963 V 67.733334 65.680807 H 20.739379 33.875528 V 62.396768 59.112729 H 59.73736 85.599161 V 55.007678 50.902627 H 59.73736 33.875528 V 48.029094 45.155558 H 20.684828 7.4941562 L 7.7538796,42.89778 8.0136041,40.640003 20.944488,40.413885 33.875404,40.187799 v -2.852684 -2.852688 h 25.861832 25.861801 v -7.389093 -7.38909 H 46.601055 7.6030723 V 9.8521226 2.4654103e-6 H 51.851133 c 41.99672,0 44.519825,0.08393647459 49.588967,1.6496328345897 23.87639,7.3746679 34.01994,35.2893807 20.4516,56.2822107 -4.47873,6.929441 -8.37834,9.010467 -8.37834,9.574427 0,0.159186 1.84209,2.251493 4.09349,4.64955 19.57714,20.852262 9.8897,54.874227 -17.668835,62.052307 -4.048554,1.05451 -11.924386,1.25853 -48.583397,1.25853 H 7.6030723 Z"
       id="path1" /></g></svg>
